# xmcd
# 
# Track frame offsets:
#     150
#     14075
#     34100
#     56600
#     70225
#     82450
#     98500
#     120050
#     140725
#     155100
#     170550
#     187950
#     206150
#     227425
# 
# Disc length: 3270
# 
# Revision: 6
# Processed by: cddbd v1.5.2PL0 Copyright (c) Steve Scherf et al.
# Submitted via: fre:ac v1.0.31
# 
DISCID=c20cc40e
DTITLE=Aaron Neville - Warm Your Heart XRCD
DYEAR=0
DGENRE=
TTITLE0=Louisiana 1927
TTITLE1=Everybody Plays The Fool
TTITLE2=It Feels Like Rain
TTITLE3=Somewhere, Somebody
TTITLE4=Don't Go Please Stay
TTITLE5=With You In Mind
TTITLE6=That's The Way She Loves
TTITLE7=Angola Bound
TTITLE8=Close Your Eyes
TTITLE9=La Vie Dansante
TTITLE10=Warm Your Heart
TTITLE11=I Bid You Goodnight
TTITLE12=Ave Maria
TTITLE13=House On A Hill
EXTD=
EXTT0=
EXTT1=
EXTT2=
EXTT3=
EXTT4=
EXTT5=
EXTT6=
EXTT7=
EXTT8=
EXTT9=
EXTT10=
EXTT11=
EXTT12=
EXTT13=
PLAYORDER=
